HIERARCHY
ROOT Hips
{
	OFFSET 0.00 0.00 0.00
	CHANNELS 6 Xposition Yposition Zposition Xrotation Yrotation Zrotation
	JOINT Spine
	{
		OFFSET 0.00000 1.15266 1.72900
		CHANNELS 3 Xrotation Yrotation Zrotation
		JOINT Spine1
		{
			OFFSET 0.00000 0.40032 2.27031
			CHANNELS 3 Xrotation Yrotation Zrotation
			JOINT Spine2
			{
				OFFSET 0.00000 0.20092 2.29656
				CHANNELS 3 Xrotation Yrotation Zrotation
				JOINT Spine3
				{
					OFFSET 0.00000 0.00000 2.30533
					CHANNELS 3 Xrotation Yrotation Zrotation
					JOINT Neck
					{
						OFFSET 0.00000 -0.86449 6.05149
						CHANNELS 3 Xrotation Yrotation Zrotation
						JOINT Head
						{
							OFFSET 0.00000 -0.55043 3.12167
							CHANNELS 3 Xrotation Yrotation Zrotation
							End Site
							{
								OFFSET 0.00000 0.00000 3.73175
							}
						}
					}
					JOINT RightShoulder
					{
						OFFSET -0.78828 -1.31380 4.25672
						CHANNELS 3 Xrotation Yrotation Zrotation
						JOINT RightArm
						{
							OFFSET -3.91513 0.00000 0.00000
							CHANNELS 3 Xrotation Yrotation Zrotation
							JOINT RightForeArm
							{
								OFFSET -6.91491 0.00000 0.00000
								CHANNELS 3 Xrotation Yrotation Zrotation
								JOINT RightHand
								{
									OFFSET -6.09622 0.00000 0.00000
									CHANNELS 3 Xrotation Yrotation Zrotation
									JOINT RightHandEnd
									{
										OFFSET -1.74995 0.00000 0.00000
										CHANNELS 3 Xrotation Yrotation Zrotation
										End Site
										{
											OFFSET -1.74995 0.00000 0.00000
										}
									}
									JOINT RightHandThumb1
									{
										OFFSET -0.69998 -1.16663 -0.46665
										CHANNELS 3 Yrotation Xrotation Zrotation
										End Site
										{
											OFFSET -1.69032 -0.45292 0.00000
										}
									}
								}
							}
						}
					}
					JOINT LeftShoulder
					{
						OFFSET 0.78828 -1.31380 4.25672
						CHANNELS 3 Xrotation Yrotation Zrotation
						JOINT LeftArm
						{
							OFFSET 3.91513 0.00000 0.00000
							CHANNELS 3 Xrotation Yrotation Zrotation
							JOINT LeftForeArm
							{
								OFFSET 6.91491 0.00000 0.00000
								CHANNELS 3 Xrotation Yrotation Zrotation
								JOINT LeftHand
								{
									OFFSET 6.09622 0.00000 0.00000
									CHANNELS 3 Xrotation Yrotation Zrotation
									JOINT LeftHandEnd
									{
										OFFSET 1.74995 0.00000 0.00000
										CHANNELS 3 Xrotation Yrotation Zrotation
										End Site
										{
											OFFSET 1.74995 0.00000 0.00000
										}
									}
									JOINT LeftHandThumb1
									{
										OFFSET 0.69998 -1.16663 -0.46665
										CHANNELS 3 Yrotation Xrotation Zrotation
										End Site
										{
											OFFSET 1.69032 -0.45292 0.00000
										}
									}
								}
							}
						}
					}
				}
			}
		}
	}
	JOINT RightUpLeg
	{
		OFFSET -2.33857 0.00000 -0.68318
		CHANNELS 3 Xrotation Yrotation Zrotation
		JOINT RightLeg
		{
			OFFSET 0.00000 0.00000 -10.74496
			CHANNELS 3 Xrotation Yrotation Zrotation
			JOINT RightFoot
			{
				OFFSET 0.00000 0.00000 -10.93085
				CHANNELS 3 Xrotation Yrotation Zrotation
				JOINT RightToeBase
				{
					OFFSET 0.00000 -4.08727 -1.48765
					CHANNELS 3 Xrotation Yrotation Zrotation
					End Site
					{
						OFFSET 0.00000 -1.89187 -0.00000
					}
				}
			}
		}
	}
	JOINT LeftUpLeg
	{
		OFFSET 2.33857 0.00000 -0.68318
		CHANNELS 3 Xrotation Yrotation Zrotation
		JOINT LeftLeg
		{
			OFFSET 0.00000 0.00000 -10.74496
			CHANNELS 3 Xrotation Yrotation Zrotation
			JOINT LeftFoot
			{
				OFFSET 0.00000 0.00000 -10.93085
				CHANNELS 3 Xrotation Yrotation Zrotation
				JOINT LeftToeBase
				{
					OFFSET 0.00000 -4.08727 -1.48765
					CHANNELS 3 Xrotation Yrotation Zrotation
					End Site
					{
						OFFSET 0.00000 -1.89187 -0.00000
					}
				}
			}
		}
	}
}
MOTION
Frames: 13
Frame Time:	0.0333333
 -2.5154 -87.0962 23.9148 9.1304 10.3208 173.7423 -4.8047 9.9595 2.8656 -2.7919 1.0663 0.6887 12.4567 5.0350 6.0446 -0.0728 -0.5215 1.4954 -11.1727 -6.6825 -6.7934 6.4164 -6.0409 -8.3460 -0.1800 -6.4287 12.6987 9.1476 -10.9733 71.7285 0.0000 0.0000 8.8465 -1.8512 -10.1976 -0.3658 0.0000 -0.0000 0.0000 -0.0000 0.0000 0.0000 -3.8353 0.9124 -13.9949 0.2997 5.5306 -94.5068 -0.0000 0.0000 5.3972 4.9768 4.4795 -4.5108 0.0000 -0.0000 -0.0000 0.0000 0.0000 0.0000 -20.2059 19.4193 -11.8655 2.9928 0.0000 0.0000 6.9201 -1.6637 8.1043 -6.5759 0.0000 -0.0000 11.8892 12.7490 -2.7138 2.9260 0.0000 0.0000 -10.8893 -1.0521 0.9248 -6.9756 0.0000 -0.0000
 -2.3268 -86.6536 23.9153 9.3916 9.7278 175.0658 -4.5925 9.6401 2.7595 -2.6512 1.0147 0.6189 12.5426 3.9696 5.5621 0.0158 -0.4824 1.4829 -10.7196 -5.4463 -6.9430 6.6944 -5.1149 -8.8805 -0.2588 -6.3474 12.5943 9.1705 -11.7765 71.9164 0.0000 0.0000 9.1255 -2.3405 -10.5298 -0.1623 0.0000 -0.0000 -0.0000 -0.0000 -0.0000 0.0000 -3.3854 0.8658 -13.8054 0.4055 5.4772 -94.5853 -0.0000 0.0000 5.8949 5.4242 5.1687 -4.3911 0.0000 -0.0000 -0.0000 -0.0000 0.0000 0.0000 -21.1310 19.8374 -9.8355 5.2287 0.0000 0.0000 4.9493 -2.0592 9.1804 -6.4855 0.0000 -0.0000 13.4857 11.4604 -3.2548 3.0669 0.0000 0.0000 -12.0047 -0.5826 0.0876 -6.8694 0.0000 -0.0000
 -2.0909 -86.1648 23.9120 9.7436 8.9551 176.2141 -4.5945 9.0423 2.7121 -2.6420 1.0746 0.5791 12.9622 3.0315 5.1233 0.1596 -0.4648 1.4670 -10.4405 -4.5191 -6.6726 6.9395 -4.5224 -8.7577 -0.3889 -6.4466 12.5492 9.0621 -11.9395 72.0683 0.0000 0.0000 9.3173 -2.4806 -10.7595 -0.1410 -0.0000 -0.0000 -0.0000 -0.0000 -0.0000 0.0000 -4.2358 0.5040 -13.5903 1.6650 6.2234 -94.6144 -0.0000 0.0000 6.1263 5.8023 5.5373 -4.3473 0.0000 -0.0000 -0.0000 -0.0000 0.0000 0.0000 -22.1643 19.9679 -7.0900 9.7873 0.0000 0.0000 3.8373 -3.2354 9.1500 -5.6071 0.0000 -0.0000 15.5673 9.8416 -4.4932 2.5272 0.0000 0.0000 -12.8470 -0.1284 0.1653 -6.8235 0.0000 -0.0000
 -1.8007 -85.6402 23.8858 9.7621 8.1973 177.1694 -4.9950 8.2229 2.7773 -2.8619 1.2149 0.5773 13.5699 2.4283 4.7704 0.2662 -0.4310 1.4065 -10.3397 -3.7516 -6.2807 7.2566 -3.8974 -8.4666 -0.5597 -6.9593 12.5606 8.8533 -11.5658 72.1112 0.0000 0.0000 9.4938 -2.1495 -10.9248 -0.3852 0.0000 0.0000 0.0000 -0.0000 0.0000 0.0000 -7.2086 -0.1322 -13.3564 5.0327 7.7475 -94.6556 -0.0000 0.0000 6.0621 6.1514 5.1063 -4.2629 0.0000 0.0000 0.0000 -0.0000 0.0000 0.0000 -23.6875 19.4353 -2.9759 15.9205 0.0000 0.0000 1.7749 -4.7882 6.8037 -4.4589 0.0000 -0.0000 17.3917 8.0703 -5.7774 1.8844 0.0000 0.0000 -13.7393 0.4199 0.6334 -6.9111 0.0000 -0.0000
 -1.4607 -85.0741 23.8207 9.4937 7.6256 177.8410 -5.5688 7.3701 2.9457 -3.1875 1.3228 0.5949 14.0046 2.2065 4.4450 0.2615 -0.3066 1.2840 -10.2475 -2.9685 -5.8808 7.5743 -3.1901 -8.2506 -0.6922 -7.7520 12.5911 8.6285 -10.9788 72.2153 0.0000 0.0000 9.6922 -1.8162 -11.0555 -0.5253 0.0000 0.0000 0.0000 -0.0000 -0.0000 0.0000 -10.5510 -0.4416 -13.1339 8.7507 9.2427 -94.5955 -0.0000 0.0000 6.0310 6.2653 4.3880 -4.0638 -0.0000 0.0000 0.0000 0.0000 0.0000 0.0000 -25.7272 18.1474 2.1601 23.4134 0.0000 0.0000 -1.1636 -7.6143 3.0741 -3.3870 0.0000 -0.0000 18.9183 6.3947 -6.6003 1.4067 0.0000 0.0000 -14.9571 1.0653 0.9709 -6.9200 0.0000 -0.0000
 -1.0797 -84.4300 23.7034 9.4218 7.4637 178.4741 -5.9710 6.8762 3.1703 -3.3750 1.3153 0.5750 14.0603 2.2727 4.0182 0.2130 -0.0870 1.0473 -10.0232 -2.1338 -5.4479 7.8099 -2.4853 -7.9891 -0.8364 -8.3986 12.5669 8.5141 -10.5758 72.5087 0.0000 0.0000 9.8812 -1.7701 -11.0434 -0.3040 0.0000 0.0000 -0.0000 -0.0000 -0.0000 0.0000 -12.4773 -0.3189 -12.8794 10.9411 10.0419 -94.3504 -0.0000 0.0000 6.1820 6.2073 4.1293 -3.7459 0.0000 -0.0000 -0.0000 0.0000 0.0000 -0.0000 -26.6705 16.6460 6.6027 30.4576 0.0000 0.0000 -3.3436 -11.5249 1.0568 -2.4901 0.0000 -0.0000 20.7888 4.9732 -7.2756 0.9854 0.0000 0.0000 -16.4848 1.8581 1.1104 -6.7174 0.0000 -0.0000
 -0.6613 -83.7134 23.5296 9.3169 7.6943 179.2244 -6.4377 6.4430 3.4029 -3.6165 1.3520 0.5910 14.1294 2.8116 3.5260 0.1640 0.2013 0.7598 -10.0100 -1.2491 -4.9787 8.0645 -1.6251 -7.5477 -1.1408 -9.0530 12.4051 8.2610 -10.6148 72.7491 0.0000 0.0000 10.1161 -1.9600 -11.2031 -0.0886 0.0000 0.0000 0.0000 -0.0000 -0.0000 0.0000 -13.8117 -0.0484 -12.5357 12.3484 9.8388 -94.1955 -0.0000 0.0000 6.2540 6.4769 4.3123 -3.4422 0.0000 -0.0000 0.0000 0.0000 0.0000 0.0000 -25.9255 15.3628 9.2958 35.2083 0.0000 0.0000 -4.4523 -13.5876 2.3669 -1.5277 0.0000 -0.0000 22.5180 3.7440 -7.3820 1.0688 0.0000 0.0000 -18.3415 3.1386 0.6394 -6.6004 0.0000 -0.0000
 -0.1853 -82.9638 23.2967 8.7131 7.9018 179.6090 -7.1300 5.4550 3.5851 -4.1051 1.1863 0.6110 14.3133 4.3133 3.4763 -0.0283 0.5710 0.4869 -10.5263 -0.1303 -4.4325 8.5225 -0.3511 -7.0463 -1.5523 -10.2401 12.1309 7.3523 -11.2985 72.7539 0.0000 0.0000 10.6069 -2.3048 -12.1603 -0.3735 0.0000 -0.0000 -0.0000 -0.0000 -0.0000 0.0000 -15.4241 0.3851 -11.9402 14.0210 8.9755 -94.3251 -0.0000 0.0000 6.1300 6.8363 4.1932 -3.3136 0.0000 0.0000 0.0000 0.0000 0.0000 -0.0000 -25.0195 13.4642 11.5794 38.5446 0.0000 0.0000 -6.8437 -11.9540 4.0170 -0.3990 0.0000 -0.0000 23.2149 2.5016 -5.8095 2.4129 0.0000 0.0000 -20.7571 5.0390 -0.8509 -6.6262 0.0000 -0.0000
 0.3860 -82.2043 23.0275 7.8789 7.1921 179.0547 -7.6220 3.7037 3.7008 -4.5612 0.0619 0.4059 14.1226 6.7088 4.0888 -0.5415 1.0244 0.2428 -11.3360 1.3905 -3.7185 9.1099 1.1926 -6.7234 -1.8303 -12.0730 12.0157 5.5276 -12.4607 72.6949 0.0000 0.0000 11.7073 -2.7052 -13.8340 -1.0288 0.0000 -0.0000 -0.0000 0.0000 -0.0000 -0.0000 -15.4835 1.6595 -10.9584 14.5994 8.2535 -94.2828 -0.0000 0.0000 6.1056 5.9641 3.4387 -3.2092 0.0000 0.0000 0.0000 0.0000 0.0000 0.0000 -24.9969 9.2601 15.2558 42.4621 0.0000 0.0000 -11.5385 -8.5956 1.8749 0.3465 0.0000 0.0000 23.1624 0.5150 -2.7523 5.0712 0.0000 0.0000 -23.7901 7.1258 -2.4443 -6.2498 0.0000 -0.0000
 1.0455 -81.4464 22.8010 7.5031 5.0625 178.0442 -7.4607 1.8960 3.6915 -4.6492 -2.3108 -0.1579 13.3472 8.9016 4.8143 -1.2676 1.4440 -0.0133 -11.9767 2.8980 -2.9293 9.5238 2.4335 -6.6626 -2.0193 -13.8902 12.3356 3.1690 -13.6768 72.6363 0.0000 0.0000 13.9024 -2.6478 -14.9906 -1.4308 0.0000 0.0000 -0.0000 -0.0000 -0.0000 0.0000 -12.4684 4.2974 -9.9949 13.0923 8.1693 -93.5121 -0.0000 0.0000 6.3253 3.6228 2.6810 -3.0156 0.0000 -0.0000 0.0000 -0.0000 0.0000 0.0000 -24.6659 2.7203 19.2479 46.5987 0.0000 0.0000 -15.9947 -5.9188 -3.6719 0.5443 0.0000 0.0000 23.2087 -2.8347 -0.1975 8.7433 0.0000 0.0000 -26.7305 8.8942 -2.5509 -5.5090 0.0000 -0.0000
 1.7146 -80.7381 22.7258 7.3173 2.1577 177.9602 -7.2751 0.7599 3.4187 -4.7622 -4.4486 -0.7188 12.9272 9.3449 4.7472 -1.8400 1.6618 -0.2418 -12.4686 3.4006 -2.4010 9.5530 2.9697 -6.7029 -2.5664 -14.8438 12.8848 0.7599 -14.7750 72.3274 0.0000 0.0000 17.3158 -1.5430 -14.3699 -1.1879 0.0000 -0.0000 -0.0000 -0.0000 -0.0000 0.0000 -8.5033 7.4222 -9.8141 11.7870 8.2828 -92.2572 -0.0000 0.0000 6.5265 1.7580 2.9296 -2.9850 0.0000 -0.0000 0.0000 -0.0000 -0.0000 0.0000 -23.1330 -3.5743 20.9174 48.4462 0.0000 0.0000 -18.2925 -4.0441 -8.5652 0.6199 0.0000 0.0000 22.2937 -7.1665 0.7697 14.1868 0.0000 0.0000 -28.0386 10.1438 -1.5153 -5.6082 0.0000 -0.0000
 2.3207 -80.1431 22.8383 6.5125 -0.5134 179.4773 -7.7200 0.1959 2.7759 -5.3674 -4.6661 -0.8448 13.3278 7.7694 3.6503 -2.0291 1.5504 -0.3912 -13.0931 2.2236 -2.3778 9.2405 2.9132 -6.5588 -3.5171 -14.6597 13.0645 -1.8789 -16.1809 71.8119 0.0000 0.0000 21.2567 0.1155 -12.2868 -0.7950 0.0000 0.0000 0.0000 0.0000 -0.0000 -0.0000 -5.9707 9.2954 -10.5235 12.8384 7.8304 -91.2620 -0.0000 0.0000 6.4657 1.8138 5.1933 -3.3703 0.0000 -0.0000 -0.0000 0.0000 -0.0000 -0.0000 -21.1464 -7.5943 19.6524 46.7230 0.0000 0.0000 -18.5775 -1.9402 -10.6306 0.7235 0.0000 0.0000 18.1885 -11.7504 0.9721 22.6602 0.0000 0.0000 -26.3601 10.4423 -1.4106 -7.1910 0.0000 -0.0000
 2.8428 -79.6733 23.0538 5.2493 -2.7230 -178.0117 -8.1463 -0.3319 1.8381 -5.6538 -3.2414 -0.5257 13.0761 5.3358 2.1573 -1.9789 1.1704 -0.4600 -13.7286 -0.1297 -2.8080 8.7181 2.5246 -6.1464 -4.3363 -13.2601 12.4795 -4.9495 -18.6104 71.6499 0.0000 0.0000 24.5230 0.6490 -9.9401 -0.6387 0.0000 -0.0000 0.0000 -0.0000 0.0000 0.0000 -4.2374 9.4985 -11.8677 14.8739 7.2131 -90.7890 -0.0000 0.0000 6.1694 3.0830 9.2014 -4.1618 0.0000 -0.0000 0.0000 -0.0000 0.0000 -0.0000 -19.3161 -9.8968 16.9157 42.7651 0.0000 0.0000 -17.8315 0.2579 -11.2349 0.7315 0.0000 0.0000 10.8786 -16.0111 0.4919 33.6528 0.0000 0.0000 -22.2162 8.5263 -2.4269 -8.8686 0.0000 -0.0000
